<?xml version="1.0" encoding="utf-8"?>
<!DOCTYPE svg PUBLIC "-//W3C//DTD SVG 1.1//EN" "http://www.w3.org/Graphics/SVG/1.1/DTD/svg11.dtd">
<svg xmlns="http://www.w3.org/2000/svg" xmlns:xlink="http://www.w3.org/1999/xlink" version="1.1" baseProfile="full" width="355.645" height="73.573" viewBox="0 0 355.65 73.57" enable-background="new 0 0 355.65 73.57" xml:space="preserve">
	<path fill="#2485d3" fill-opacity="1" stroke-width="0.2" stroke-linejoin="round" d="M 217.631,73.5728C 213.576,73.5728 209.786,72.8094 206.261,71.2825C 202.737,69.7556 199.69,67.6735 197.122,65.0361C 194.554,62.3987 192.542,59.3326 191.084,55.8376C 189.627,52.3427 188.898,48.5923 188.898,44.5868C 188.898,40.5812 189.627,36.816 191.084,33.2913C 192.542,29.7665 194.554,26.6855 197.122,24.0482C 199.69,21.4108 202.737,19.3287 206.261,17.8018C 209.786,16.275 213.576,15.5115 217.631,15.5115C 219.921,15.5115 222.224,15.8164 224.539,16.4262C 226.854,17.0359 229.043,17.9531 231.105,19.1776C 233.168,20.402 235.056,21.8967 236.772,23.6616C 238.487,25.4263 239.88,27.4341 240.951,29.6848L 240.951,16.4633L 246.29,16.4633L 246.29,72.621L 240.951,72.621L 240.951,59.9052C 239.88,62.0865 238.487,64.0372 236.772,65.7574C 235.056,67.4777 233.168,68.9128 231.105,70.0629C 229.043,71.2131 226.854,72.0856 224.539,72.6805C 222.224,73.2753 219.921,73.5728 217.631,73.5728 Z M 217.824,68.8139C 221.185,68.8139 224.294,68.1868 227.149,66.9326C 230.005,65.6783 232.513,63.9581 234.675,61.7719C 236.836,59.5856 238.519,57.0128 239.724,54.0532C 240.928,51.0936 241.531,47.9382 241.531,44.587C 241.531,41.2457 240.928,38.0953 239.724,35.1357C 238.519,32.1761 236.836,29.6032 234.675,27.4169C 232.513,25.2308 230.005,23.4932 227.149,22.2042C 224.294,20.9153 221.185,20.2708 217.824,20.2708C 214.592,20.2708 211.548,20.8979 208.693,22.1522C 205.837,23.4064 203.346,25.144 201.219,27.3649C 199.093,29.5858 197.427,32.1588 196.222,35.0836C 195.018,38.0085 194.415,41.1763 194.415,44.587C 194.415,47.9382 195.018,51.0936 196.222,54.0532C 197.427,57.0128 199.093,59.5856 201.219,61.7719C 203.346,63.9581 205.837,65.6783 208.693,66.9326C 211.548,68.1868 214.592,68.8139 217.824,68.8139 Z M 258.083,16.4636L 267.988,16.4636L 267.988,3.46521L 273.223,-6.10352e-005L 273.223,16.4636L 287.887,16.4636L 287.887,21.2227L 273.223,21.2227L 273.223,52.6031C 273.223,55.8453 273.429,58.4702 273.841,60.478C 274.252,62.4857 274.998,64.0399 276.079,65.1404C 277.16,66.241 278.652,66.9697 280.555,67.3267C 282.459,67.6836 284.903,67.8621 287.887,67.8621L 287.887,72.6212L 287.025,72.6212C 283.218,72.6212 280.092,72.3312 277.648,71.7512C 275.204,71.1711 273.268,70.1276 271.84,68.6205C 270.413,67.1135 269.414,65.0562 268.844,62.4485C 268.273,59.8409 267.988,56.5145 267.988,52.4693L 267.988,21.2227L 258.083,21.2227L 258.083,16.4636 Z M 327.567,73.5729C 323.065,73.5729 319.005,72.8268 315.386,71.3347C 311.767,69.8425 308.706,67.8075 306.203,65.2296C 303.699,62.6518 301.766,59.6154 300.402,56.1204C 299.039,52.6254 298.358,48.8454 298.358,44.7803C 298.358,40.6458 299.086,36.7988 300.544,33.2394C 302.001,29.68 304.014,26.5989 306.582,23.9963C 309.15,21.3936 312.211,19.3289 315.766,17.802C 319.32,16.2751 323.16,15.5117 327.284,15.5117C 331.349,15.5117 335.109,16.2007 338.565,17.5789C 342.02,18.9571 345.017,20.9004 347.555,23.4089C 350.093,25.9173 352.076,28.8793 353.504,32.295C 354.932,35.7107 355.645,39.456 355.645,43.531L 355.645,45.97L 303.593,45.97C 303.781,49.2419 304.478,52.2833 305.682,55.0942C 306.887,57.905 308.535,60.3218 310.627,62.3444C 312.719,64.367 315.193,65.9509 318.048,67.0961C 320.904,68.2413 324.077,68.8138 327.567,68.8138C 332.96,68.8138 337.499,67.4704 341.182,64.7834C 344.866,62.0965 347.624,58.3884 349.459,53.659L 354.322,55.994C 351.843,61.5958 348.415,65.9261 344.038,68.9849C 339.66,72.0436 334.17,73.5729 327.567,73.5729 Z M 327.284,20.2708C 324.181,20.2708 321.296,20.8137 318.629,21.8994C 315.961,22.985 313.597,24.4499 311.534,26.2941C 309.472,28.1382 307.759,30.3369 306.396,32.8899C 305.033,35.443 304.158,38.2167 303.771,41.2109L 350.128,41.2109C 349.88,38.1473 349.136,35.3265 347.897,32.7486C 346.658,30.1708 345.054,27.9573 343.086,26.1082C 341.118,24.259 338.803,22.8239 336.141,21.8027C 333.478,20.7814 330.526,20.2708 327.284,20.2708 Z M 35.6934,73.5729C 30.7459,73.5729 26.1156,72.636 21.8027,70.762C 17.4897,68.8881 13.7147,66.3351 10.4775,63.1028C 7.24033,59.8706 4.68478,56.0955 2.81088,51.7776C 0.936981,47.4597 0,42.827 0,37.8795C 0,32.932 0.936981,28.2993 2.81088,23.9814C 4.68478,19.6635 7.24033,15.8884 10.4775,12.6562C 13.7147,9.42395 17.4897,6.87085 21.8027,4.99695C 26.1156,3.12305 30.7459,2.1861 35.6934,2.1861C 38.9355,2.1861 42.0637,2.61987 45.0778,3.48743C 48.0919,4.35498 50.9151,5.56207 53.5475,7.10883C 56.1799,8.65558 58.5743,10.522 60.7308,12.7082C 62.8873,14.8945 64.7587,17.3062 66.3451,19.9435L 61.586,22.7098C 58.9883,18.0201 55.4363,14.2203 50.93,11.3102C 46.4237,8.40021 41.3448,6.94525 35.6934,6.94525C 31.4399,6.94525 27.4888,7.76569 23.8402,9.40656C 20.1915,11.0475 17.0188,13.2684 14.3219,16.0693C 11.6252,18.8703 9.50092,22.1521 7.94922,25.9148C 6.39758,29.6774 5.62177,33.6806 5.62177,37.9241C 5.62177,42.1776 6.39758,46.1683 7.94922,49.8963C 9.50092,53.6243 11.6252,56.8887 14.3219,59.6896C 17.0188,62.4906 20.1915,64.7115 23.8402,66.3525C 27.4888,67.9933 31.4399,68.8138 35.6934,68.8138C 41.8505,68.8138 47.2293,67.3315 51.8298,64.367C 56.4302,61.4025 59.9698,57.5307 62.4485,52.7518L 67.2969,55.2354C 65.77,57.962 63.9283,60.4581 61.7719,62.7236C 59.6154,64.9891 57.1888,66.93 54.4919,68.5461C 51.7951,70.1622 48.8603,71.4041 45.6875,72.2716C 42.5148,73.1392 39.1834,73.5729 35.6934,73.5729 Z M 79.1947,16.4634L 84.4298,16.4634L 84.4298,27.335C 85.8873,23.845 88.0115,21.1606 90.8026,19.2817C 93.5936,17.4029 96.9572,16.4634 100.893,16.4634C 103.372,16.4634 105.484,16.7014 107.229,17.1773C 108.974,17.6532 110.704,18.3373 112.419,19.2297L 109.177,24.7919C 107.908,23.6815 106.624,22.8089 105.325,22.1744C 104.026,21.5399 102.485,21.2225 100.7,21.2225C 95.7525,21.2225 91.8362,22.8635 88.951,26.1453C 86.0657,29.4271 84.6231,33.9978 84.6231,39.8575L 84.6231,72.621L 79.1947,72.621L 79.1947,16.4634 Z M 162.523,64.8241C 165.08,64.9194 167.494,64.8739 169.725,64.6918C 164.012,70.1844 156.177,73.5729 147.531,73.5729C 136.839,73.5729 127.385,68.3895 121.655,60.4528L 121.201,60.3941C 114.924,59.5347 110.636,57.3277 109.681,53.9077C 108.729,50.4973 111.259,46.4792 116.19,42.6315C 116.367,39.9663 116.93,37.3396 117.857,34.8344C 121.618,23.5041 132.302,15.332 144.894,15.332C 155.029,15.332 163.928,20.6255 168.976,28.5986C 175.152,29.4758 179.366,31.673 180.312,35.0596C 181.269,38.4878 178.707,42.53 173.725,46.3961L 173.224,46.7775C 172.011,47.6871 170.665,48.5853 169.2,49.4617L 167.872,50.2324C 162.629,53.1832 156.051,55.8452 148.715,57.8028C 141.326,59.7747 134.228,60.7491 128.149,60.7991L 127.666,60.7971C 132.63,65.9827 139.693,69.2234 147.531,69.2234C 153.071,69.2234 158.224,67.6045 162.523,64.8241 Z M 168.746,43.8143C 168.746,35.0433 164.012,27.3782 156.959,23.2347C 149.543,19.2324 140.218,19.054 132.39,23.561L 131.062,24.3809C 124.998,28.7053 121.043,35.7979 121.043,43.8142C 121.043,48.5869 122.445,53.0322 124.859,56.7608C 130.921,56.9206 138.849,55.8995 147.275,53.6509C 155.992,51.3246 163.567,48.1315 168.723,44.8687L 168.746,43.8143 Z M 171.081,32.4979L 171.242,32.8389C 172.473,35.4973 173.248,38.2654 173.59,41.05C 175.361,39.2027 176.157,37.4362 175.729,35.9047C 175.294,34.3461 173.642,33.207 171.081,32.4979 Z M 113.543,52.4994C 114.006,54.1561 115.844,55.339 118.686,56.035C 117.375,53.2054 116.581,50.2512 116.275,47.285L 116.229,46.8079C 114.07,48.8698 113.076,50.8249 113.543,52.4994 Z "/>
</svg>
